<svg id="visual" viewBox="0 0 900 600" width="900" height="600" xmlns="http://www.w3.org/2000/svg" xmlns:xlink="http://www.w3.org/1999/xlink" version="1.1"><rect x="0" y="0" width="900" height="600" fill="#001220"></rect><defs><linearGradient id="grad1_0" x1="33.3%" y1="0%" x2="100%" y2="100%"><stop offset="20%" stop-color="#001220" stop-opacity="1"></stop><stop offset="80%" stop-color="#001220" stop-opacity="1"></stop></linearGradient></defs><defs><linearGradient id="grad2_0" x1="0%" y1="0%" x2="66.7%" y2="100%"><stop offset="20%" stop-color="#001220" stop-opacity="1"></stop><stop offset="80%" stop-color="#001220" stop-opacity="1"></stop></linearGradient></defs><g transform="translate(900, 0)"><path d="M0 486.7C-51.3 441.5 -102.6 396.3 -152.7 368.6C-202.7 340.9 -251.5 330.8 -305.5 305.5C-359.4 280.2 -418.6 239.7 -449.7 186.3C-480.8 132.8 -483.8 66.4 -486.7 0L0 0Z" fill="#FBAE3C"></path></g><g transform="translate(0, 600)"><path d="M0 -486.7C69.4 -480.8 138.8 -474.8 180.6 -436.1C222.4 -397.3 236.6 -325.7 283.5 -283.5C330.5 -241.4 410.4 -228.6 449.7 -186.3C489 -143.9 487.9 -72 486.7 0L0 0Z" fill="#FBAE3C"></path></g></svg>