<svg id="visual" viewBox="0 0 900 600" width="900" height="600" xmlns="http://www.w3.org/2000/svg" xmlns:xlink="http://www.w3.org/1999/xlink" version="1.1"><g transform="translate(461.2029256811079 264.9001892494721)"><path d="M100.7 -108.5C137.2 -89.5 177.9 -64 191.7 -27.6C205.5 8.8 192.4 56.2 169.5 99.8C146.6 143.5 114 183.6 67 213.3C20.1 243.1 -41.3 262.5 -90.6 245.9C-140 229.3 -177.4 176.6 -198.2 123C-219 69.3 -223.3 14.6 -217.2 -41.6C-211.2 -97.7 -195 -155.3 -157 -174.2C-119.1 -193 -59.6 -173 -13.7 -156.6C32.1 -140.3 64.3 -127.6 100.7 -108.5" fill="#FF0066"></path></g></svg>