<svg xmlns="http://www.w3.org/2000/svg" xmlns:xlink="http://www.w3.org/1999/xlink" width="500" zoomAndPan="magnify" viewBox="0 0 375 374.999991" height="500" preserveAspectRatio="xMidYMid meet" version="1.0"><defs><g/><clipPath id="ea22438929"><path d="M 147.132812 111.390625 L 228.132812 111.390625 L 228.132812 188.640625 L 147.132812 188.640625 Z M 147.132812 111.390625 " clip-rule="nonzero"/></clipPath><clipPath id="9099ab8b92"><path d="M 190.394531 155.765625 L 190.394531 121.285156 C 190.394531 119.945312 191.667969 118.980469 192.957031 119.339844 L 226.65625 128.804688 C 227.527344 129.050781 228.128906 129.84375 228.128906 130.75 L 228.128906 165.230469 C 228.128906 166.566406 226.851562 167.535156 225.566406 167.175781 L 191.867188 157.707031 C 190.996094 157.464844 190.394531 156.667969 190.394531 155.765625 Z M 164.957031 133.367188 L 182.308594 138.242188 C 183.59375 138.605469 184.867188 137.636719 184.867188 136.300781 L 184.867188 118.574219 C 184.867188 117.667969 184.265625 116.875 183.398438 116.632812 L 166.046875 111.757812 C 164.757812 111.394531 163.484375 112.363281 163.484375 113.699219 L 163.484375 131.425781 C 163.484375 132.332031 164.085938 133.125 164.957031 133.367188 Z M 183.398438 142.339844 L 149.695312 132.871094 C 148.410156 132.511719 147.136719 133.480469 147.136719 134.816406 L 147.136719 169.296875 C 147.136719 170.203125 147.738281 170.996094 148.605469 171.238281 L 182.308594 180.707031 C 183.59375 181.066406 184.867188 180.101562 184.867188 178.761719 L 184.867188 144.28125 C 184.867188 143.378906 184.265625 142.582031 183.398438 142.339844 Z M 210.308594 166.675781 L 192.957031 161.804688 C 191.667969 161.441406 190.394531 162.410156 190.394531 163.746094 L 190.394531 181.472656 C 190.394531 182.375 190.996094 183.171875 191.867188 183.414062 L 209.21875 188.289062 C 210.503906 188.652344 211.777344 187.683594 211.777344 186.347656 L 211.777344 168.621094 C 211.777344 167.714844 211.175781 166.921875 210.308594 166.675781 Z M 210.308594 166.675781 " clip-rule="nonzero"/></clipPath><linearGradient x1="114.296455" gradientTransform="matrix(0.00000000000000001, 0.162154, -0.161984, 0.00000000000000001, 228.127239, 111.680597)" y1="-47.633938" x2="358.610875" gradientUnits="userSpaceOnUse" y2="547.607279" id="236e530a5a"><stop stop-opacity="1" stop-color="rgb(77.598572%, 30.999756%, 100%)" offset="0"/><stop stop-opacity="1" stop-color="rgb(77.598572%, 30.999756%, 100%)" offset="0.0625"/><stop stop-opacity="1" stop-color="rgb(77.540588%, 30.987549%, 100%)" offset="0.09375"/><stop stop-opacity="1" stop-color="rgb(77.328491%, 30.941772%, 100%)" offset="0.101562"/><stop stop-opacity="1" stop-color="rgb(77.018738%, 30.874634%, 100%)" offset="0.109375"/><stop stop-opacity="1" stop-color="rgb(76.708984%, 30.809021%, 100%)" offset="0.117187"/><stop stop-opacity="1" stop-color="rgb(76.399231%, 30.741882%, 100%)" offset="0.125"/><stop stop-opacity="1" stop-color="rgb(76.089478%, 30.674744%, 100%)" offset="0.132812"/><stop stop-opacity="1" stop-color="rgb(75.779724%, 30.609131%, 100%)" offset="0.140625"/><stop stop-opacity="1" stop-color="rgb(75.469971%, 30.541992%, 100%)" offset="0.148438"/><stop stop-opacity="1" stop-color="rgb(75.160217%, 30.476379%, 100%)" offset="0.15625"/><stop stop-opacity="1" stop-color="rgb(74.850464%, 30.409241%, 100%)" offset="0.164062"/><stop stop-opacity="1" stop-color="rgb(74.54071%, 30.343628%, 100%)" offset="0.171875"/><stop stop-opacity="1" stop-color="rgb(74.230957%, 30.276489%, 100%)" offset="0.179687"/><stop stop-opacity="1" stop-color="rgb(73.919678%, 30.210876%, 100%)" offset="0.1875"/><stop stop-opacity="1" stop-color="rgb(73.609924%, 30.143738%, 100%)" offset="0.195312"/><stop stop-opacity="1" stop-color="rgb(73.300171%, 30.078125%, 100%)" offset="0.203125"/><stop stop-opacity="1" stop-color="rgb(72.990417%, 30.010986%, 100%)" offset="0.210937"/><stop stop-opacity="1" stop-color="rgb(72.680664%, 29.945374%, 100%)" offset="0.21875"/><stop stop-opacity="1" stop-color="rgb(72.370911%, 29.878235%, 100%)" offset="0.226562"/><stop stop-opacity="1" stop-color="rgb(72.061157%, 29.812622%, 100%)" offset="0.234375"/><stop stop-opacity="1" stop-color="rgb(71.751404%, 29.745483%, 100%)" offset="0.242187"/><stop stop-opacity="1" stop-color="rgb(71.44165%, 29.679871%, 100%)" offset="0.25"/><stop stop-opacity="1" stop-color="rgb(71.131897%, 29.612732%, 100%)" offset="0.257812"/><stop stop-opacity="1" stop-color="rgb(70.822144%, 29.547119%, 100%)" offset="0.265625"/><stop stop-opacity="1" stop-color="rgb(70.51239%, 29.47998%, 100%)" offset="0.273438"/><stop stop-opacity="1" stop-color="rgb(70.201111%, 29.414368%, 100%)" offset="0.281113"/><stop stop-opacity="1" stop-color="rgb(70.046997%, 29.380798%, 100%)" offset="0.28125"/><stop stop-opacity="1" stop-color="rgb(69.891357%, 29.347229%, 100%)" offset="0.289062"/><stop stop-opacity="1" stop-color="rgb(69.581604%, 29.281616%, 100%)" offset="0.296875"/><stop stop-opacity="1" stop-color="rgb(69.271851%, 29.214478%, 100%)" offset="0.304688"/><stop stop-opacity="1" stop-color="rgb(68.962097%, 29.148865%, 100%)" offset="0.3125"/><stop stop-opacity="1" stop-color="rgb(68.652344%, 29.081726%, 100%)" offset="0.320312"/><stop stop-opacity="1" stop-color="rgb(68.34259%, 29.016113%, 100%)" offset="0.328125"/><stop stop-opacity="1" stop-color="rgb(68.032837%, 28.948975%, 100%)" offset="0.335938"/><stop stop-opacity="1" stop-color="rgb(67.723083%, 28.883362%, 100%)" offset="0.34375"/><stop stop-opacity="1" stop-color="rgb(67.41333%, 28.816223%, 100%)" offset="0.351562"/><stop stop-opacity="1" stop-color="rgb(67.103577%, 28.75061%, 100%)" offset="0.359375"/><stop stop-opacity="1" stop-color="rgb(66.793823%, 28.683472%, 100%)" offset="0.367188"/><stop stop-opacity="1" stop-color="rgb(66.48407%, 28.616333%, 100%)" offset="0.375"/><stop stop-opacity="1" stop-color="rgb(66.172791%, 28.55072%, 100%)" offset="0.382812"/><stop stop-opacity="1" stop-color="rgb(65.863037%, 28.483582%, 100%)" offset="0.390625"/><stop stop-opacity="1" stop-color="rgb(65.553284%, 28.417969%, 100%)" offset="0.398438"/><stop stop-opacity="1" stop-color="rgb(65.24353%, 28.35083%, 100%)" offset="0.40625"/><stop stop-opacity="1" stop-color="rgb(64.933777%, 28.285217%, 100%)" offset="0.414062"/><stop stop-opacity="1" stop-color="rgb(64.624023%, 28.218079%, 100%)" offset="0.421875"/><stop stop-opacity="1" stop-color="rgb(64.31427%, 28.152466%, 100%)" offset="0.429688"/><stop stop-opacity="1" stop-color="rgb(64.004517%, 28.085327%, 100%)" offset="0.4375"/><stop stop-opacity="1" stop-color="rgb(63.694763%, 28.019714%, 100%)" offset="0.445312"/><stop stop-opacity="1" stop-color="rgb(63.38501%, 27.952576%, 100%)" offset="0.453125"/><stop stop-opacity="1" stop-color="rgb(63.075256%, 27.886963%, 100%)" offset="0.460938"/><stop stop-opacity="1" stop-color="rgb(62.765503%, 27.819824%, 100%)" offset="0.46875"/><stop stop-opacity="1" stop-color="rgb(62.45575%, 27.754211%, 100%)" offset="0.476562"/><stop stop-opacity="1" stop-color="rgb(62.14447%, 27.687073%, 100%)" offset="0.484375"/><stop stop-opacity="1" stop-color="rgb(61.834717%, 27.62146%, 100%)" offset="0.492188"/><stop stop-opacity="1" stop-color="rgb(61.524963%, 27.554321%, 100%)" offset="0.5"/><stop stop-opacity="1" stop-color="rgb(61.21521%, 27.488708%, 100%)" offset="0.507812"/><stop stop-opacity="1" stop-color="rgb(60.905457%, 27.42157%, 100%)" offset="0.515625"/><stop stop-opacity="1" stop-color="rgb(60.595703%, 27.355957%, 100%)" offset="0.523438"/><stop stop-opacity="1" stop-color="rgb(60.28595%, 27.288818%, 100%)" offset="0.53125"/><stop stop-opacity="1" stop-color="rgb(59.976196%, 27.223206%, 100%)" offset="0.539062"/><stop stop-opacity="1" stop-color="rgb(59.666443%, 27.156067%, 100%)" offset="0.546875"/><stop stop-opacity="1" stop-color="rgb(59.356689%, 27.090454%, 100%)" offset="0.554688"/><stop stop-opacity="1" stop-color="rgb(59.046936%, 27.023315%, 100%)" offset="0.5625"/><stop stop-opacity="1" stop-color="rgb(58.737183%, 26.957703%, 100%)" offset="0.570312"/><stop stop-opacity="1" stop-color="rgb(58.425903%, 26.890564%, 100%)" offset="0.578125"/><stop stop-opacity="1" stop-color="rgb(58.11615%, 26.824951%, 100%)" offset="0.585938"/><stop stop-opacity="1" stop-color="rgb(57.806396%, 26.757812%, 100%)" offset="0.59375"/><stop stop-opacity="1" stop-color="rgb(57.496643%, 26.690674%, 100%)" offset="0.601562"/><stop stop-opacity="1" stop-color="rgb(57.18689%, 26.625061%, 100%)" offset="0.609375"/><stop stop-opacity="1" stop-color="rgb(56.877136%, 26.557922%, 100%)" offset="0.617188"/><stop stop-opacity="1" stop-color="rgb(56.567383%, 26.49231%, 100%)" offset="0.625"/><stop stop-opacity="1" stop-color="rgb(56.257629%, 26.425171%, 100%)" offset="0.632812"/><stop stop-opacity="1" stop-color="rgb(55.947876%, 26.359558%, 100%)" offset="0.640625"/><stop stop-opacity="1" stop-color="rgb(55.638123%, 26.292419%, 100%)" offset="0.648438"/><stop stop-opacity="1" stop-color="rgb(55.328369%, 26.226807%, 100%)" offset="0.65625"/><stop stop-opacity="1" stop-color="rgb(55.018616%, 26.159668%, 100%)" offset="0.664062"/><stop stop-opacity="1" stop-color="rgb(54.708862%, 26.094055%, 100%)" offset="0.671875"/><stop stop-opacity="1" stop-color="rgb(54.397583%, 26.026917%, 100%)" offset="0.679688"/><stop stop-opacity="1" stop-color="rgb(54.08783%, 25.961304%, 100%)" offset="0.6875"/><stop stop-opacity="1" stop-color="rgb(53.778076%, 25.894165%, 100%)" offset="0.695312"/><stop stop-opacity="1" stop-color="rgb(53.468323%, 25.828552%, 100%)" offset="0.703125"/><stop stop-opacity="1" stop-color="rgb(53.158569%, 25.761414%, 100%)" offset="0.710938"/><stop stop-opacity="1" stop-color="rgb(52.848816%, 25.695801%, 100%)" offset="0.71875"/><stop stop-opacity="1" stop-color="rgb(52.539062%, 25.628662%, 100%)" offset="0.718887"/><stop stop-opacity="1" stop-color="rgb(52.384949%, 25.596619%, 100%)" offset="0.726562"/><stop stop-opacity="1" stop-color="rgb(52.229309%, 25.563049%, 100%)" offset="0.734375"/><stop stop-opacity="1" stop-color="rgb(51.919556%, 25.495911%, 100%)" offset="0.742188"/><stop stop-opacity="1" stop-color="rgb(51.609802%, 25.430298%, 100%)" offset="0.75"/><stop stop-opacity="1" stop-color="rgb(51.300049%, 25.363159%, 100%)" offset="0.757812"/><stop stop-opacity="1" stop-color="rgb(50.990295%, 25.297546%, 100%)" offset="0.765625"/><stop stop-opacity="1" stop-color="rgb(50.679016%, 25.230408%, 100%)" offset="0.773437"/><stop stop-opacity="1" stop-color="rgb(50.369263%, 25.164795%, 100%)" offset="0.78125"/><stop stop-opacity="1" stop-color="rgb(50.059509%, 25.097656%, 100%)" offset="0.789062"/><stop stop-opacity="1" stop-color="rgb(49.749756%, 25.032043%, 100%)" offset="0.796875"/><stop stop-opacity="1" stop-color="rgb(49.440002%, 24.964905%, 100%)" offset="0.804687"/><stop stop-opacity="1" stop-color="rgb(49.130249%, 24.899292%, 100%)" offset="0.8125"/><stop stop-opacity="1" stop-color="rgb(48.820496%, 24.832153%, 100%)" offset="0.820312"/><stop stop-opacity="1" stop-color="rgb(48.510742%, 24.765015%, 100%)" offset="0.828125"/><stop stop-opacity="1" stop-color="rgb(48.277283%, 24.716187%, 100%)" offset="0.84375"/><stop stop-opacity="1" stop-color="rgb(48.199463%, 24.699402%, 100%)" offset="0.875"/><stop stop-opacity="1" stop-color="rgb(48.199463%, 24.699402%, 100%)" offset="1"/></linearGradient></defs><g fill="#170b30" fill-opacity="1"><g transform="translate(87.24703, 225.483501)"><g><path d="M 21.421875 -17.1875 C 21.421875 -14.832031 20.617188 -13.039062 19.015625 -11.8125 C 17.421875 -10.582031 15.296875 -9.96875 12.640625 -9.96875 L 7.234375 -9.96875 C 7.003906 -9.96875 6.890625 -9.859375 6.890625 -9.640625 L 6.890625 -0.5625 C 6.890625 -0.1875 6.691406 0 6.296875 0 L 3.4375 0 C 3.082031 0 2.90625 -0.164062 2.90625 -0.5 L 2.90625 -23.984375 C 2.90625 -24.160156 2.9375 -24.285156 3 -24.359375 C 3.070312 -24.441406 3.191406 -24.484375 3.359375 -24.484375 L 12.171875 -24.484375 C 14.941406 -24.484375 17.175781 -23.875 18.875 -22.65625 C 20.570312 -21.4375 21.421875 -19.613281 21.421875 -17.1875 Z M 17.328125 -17.296875 C 17.328125 -20.128906 15.535156 -21.546875 11.953125 -21.546875 L 7.390625 -21.546875 C 7.210938 -21.546875 7.082031 -21.507812 7 -21.4375 C 6.925781 -21.375 6.890625 -21.257812 6.890625 -21.09375 L 6.890625 -13.390625 C 6.890625 -13.066406 7.015625 -12.90625 7.265625 -12.90625 L 12.171875 -12.90625 C 13.785156 -12.90625 15.046875 -13.269531 15.953125 -14 C 16.867188 -14.738281 17.328125 -15.835938 17.328125 -17.296875 Z M 17.328125 -17.296875 "/></g></g></g><g fill="#170b30" fill-opacity="1"><g transform="translate(110.280987, 225.483501)"><g><path d="M 2.875 0 C 2.675781 0 2.535156 -0.0390625 2.453125 -0.125 C 2.378906 -0.21875 2.34375 -0.351562 2.34375 -0.53125 L 2.34375 -23.984375 C 2.34375 -24.316406 2.472656 -24.484375 2.734375 -24.484375 L 5.34375 -24.484375 C 5.601562 -24.484375 5.734375 -24.34375 5.734375 -24.0625 L 5.734375 -15.34375 C 5.734375 -15.082031 5.847656 -15.050781 6.078125 -15.25 C 7.242188 -16.164062 8.265625 -16.820312 9.140625 -17.21875 C 10.023438 -17.613281 10.984375 -17.8125 12.015625 -17.8125 C 13.703125 -17.8125 15 -17.359375 15.90625 -16.453125 C 16.8125 -15.554688 17.265625 -14.316406 17.265625 -12.734375 L 17.265625 -0.59375 C 17.265625 -0.195312 17.078125 0 16.703125 0 L 14.25 0 C 13.925781 0 13.765625 -0.175781 13.765625 -0.53125 L 13.765625 -12.078125 C 13.765625 -13.066406 13.507812 -13.832031 13 -14.375 C 12.5 -14.914062 11.726562 -15.1875 10.6875 -15.1875 C 9.832031 -15.1875 9.054688 -15 8.359375 -14.625 C 7.671875 -14.25 6.832031 -13.609375 5.84375 -12.703125 L 5.84375 -0.5625 C 5.84375 -0.1875 5.632812 0 5.21875 0 Z M 2.875 0 "/></g></g></g><g fill="#170b30" fill-opacity="1"><g transform="translate(129.684947, 225.483501)"><g><path d="M 9.859375 0.328125 C 8.191406 0.328125 6.710938 -0.0507812 5.421875 -0.8125 C 4.140625 -1.570312 3.144531 -2.628906 2.4375 -3.984375 C 1.738281 -5.347656 1.390625 -6.898438 1.390625 -8.640625 C 1.390625 -10.421875 1.75 -12.007812 2.46875 -13.40625 C 3.195312 -14.8125 4.203125 -15.894531 5.484375 -16.65625 C 6.773438 -17.425781 8.25 -17.8125 9.90625 -17.8125 C 11.570312 -17.8125 13.046875 -17.421875 14.328125 -16.640625 C 15.617188 -15.867188 16.613281 -14.785156 17.3125 -13.390625 C 18.019531 -12.003906 18.375 -10.429688 18.375 -8.671875 C 18.375 -6.941406 18.015625 -5.394531 17.296875 -4.03125 C 16.585938 -2.664062 15.585938 -1.597656 14.296875 -0.828125 C 13.015625 -0.0546875 11.535156 0.328125 9.859375 0.328125 Z M 9.9375 -2.140625 C 11.476562 -2.140625 12.675781 -2.71875 13.53125 -3.875 C 14.382812 -5.03125 14.8125 -6.65625 14.8125 -8.75 C 14.8125 -10.832031 14.375 -12.460938 13.5 -13.640625 C 12.632812 -14.816406 11.4375 -15.40625 9.90625 -15.40625 C 8.363281 -15.40625 7.148438 -14.816406 6.265625 -13.640625 C 5.390625 -12.460938 4.953125 -10.832031 4.953125 -8.75 C 4.953125 -6.675781 5.390625 -5.054688 6.265625 -3.890625 C 7.148438 -2.722656 8.375 -2.140625 9.9375 -2.140625 Z M 9.9375 -2.140625 "/></g></g></g><g fill="#170b30" fill-opacity="1"><g transform="translate(149.451902, 225.483501)"><g><path d="M 2.84375 0 C 2.488281 0 2.3125 -0.175781 2.3125 -0.53125 L 2.3125 -17 C 2.3125 -17.320312 2.453125 -17.484375 2.734375 -17.484375 L 5.34375 -17.484375 C 5.601562 -17.484375 5.734375 -17.34375 5.734375 -17.0625 L 5.734375 -15.25 C 5.734375 -15.113281 5.757812 -15.035156 5.8125 -15.015625 C 5.875 -14.992188 5.960938 -15.035156 6.078125 -15.140625 C 7.210938 -16.066406 8.21875 -16.742188 9.09375 -17.171875 C 9.976562 -17.597656 10.941406 -17.8125 11.984375 -17.8125 C 13.628906 -17.8125 14.921875 -17.351562 15.859375 -16.4375 C 16.796875 -15.53125 17.265625 -14.304688 17.265625 -12.765625 L 17.265625 -0.59375 C 17.265625 -0.195312 17.078125 0 16.703125 0 L 14.25 0 C 13.925781 0 13.765625 -0.175781 13.765625 -0.53125 L 13.765625 -12.078125 C 13.765625 -13.066406 13.503906 -13.832031 12.984375 -14.375 C 12.460938 -14.914062 11.6875 -15.1875 10.65625 -15.1875 C 9.820312 -15.1875 9.046875 -14.992188 8.328125 -14.609375 C 7.617188 -14.222656 6.78125 -13.585938 5.8125 -12.703125 L 5.8125 -0.5625 C 5.8125 -0.363281 5.757812 -0.21875 5.65625 -0.125 C 5.5625 -0.0390625 5.40625 0 5.1875 0 Z M 2.84375 0 "/></g></g></g><g fill="#170b30" fill-opacity="1"><g transform="translate(168.855861, 225.483501)"><g><path d="M 4.984375 -7.53125 C 4.984375 -6.53125 5.21875 -5.628906 5.6875 -4.828125 C 6.164062 -4.023438 6.8125 -3.390625 7.625 -2.921875 C 8.4375 -2.453125 9.328125 -2.21875 10.296875 -2.21875 C 11.304688 -2.21875 12.207031 -2.425781 13 -2.84375 C 13.789062 -3.257812 14.519531 -3.90625 15.1875 -4.78125 C 15.25 -4.875 15.320312 -4.921875 15.40625 -4.921875 C 15.519531 -4.921875 15.609375 -4.894531 15.671875 -4.84375 L 17.359375 -4.0625 C 17.460938 -3.988281 17.515625 -3.898438 17.515625 -3.796875 C 17.515625 -3.734375 17.484375 -3.644531 17.421875 -3.53125 C 16.492188 -2.164062 15.4375 -1.179688 14.25 -0.578125 C 13.0625 0.0234375 11.625 0.328125 9.9375 0.328125 C 8.28125 0.328125 6.800781 -0.0390625 5.5 -0.78125 C 4.207031 -1.53125 3.195312 -2.582031 2.46875 -3.9375 C 1.75 -5.289062 1.390625 -6.828125 1.390625 -8.546875 C 1.390625 -10.390625 1.757812 -12.015625 2.5 -13.421875 C 3.25 -14.835938 4.265625 -15.921875 5.546875 -16.671875 C 6.835938 -17.429688 8.273438 -17.8125 9.859375 -17.8125 C 11.492188 -17.8125 12.925781 -17.453125 14.15625 -16.734375 C 15.382812 -16.023438 16.332031 -14.988281 17 -13.625 C 17.675781 -12.257812 18.015625 -10.644531 18.015625 -8.78125 L 18.015625 -8.640625 C 18.015625 -8.441406 17.988281 -8.289062 17.9375 -8.1875 C 17.882812 -8.09375 17.742188 -8.046875 17.515625 -8.046875 L 5.3125 -8.046875 C 5.09375 -8.046875 4.984375 -7.875 4.984375 -7.53125 Z M 13.984375 -10.125 C 14.210938 -10.125 14.363281 -10.15625 14.4375 -10.21875 C 14.507812 -10.289062 14.546875 -10.414062 14.546875 -10.59375 C 14.546875 -11.445312 14.363281 -12.25 14 -13 C 13.644531 -13.75 13.117188 -14.347656 12.421875 -14.796875 C 11.734375 -15.253906 10.914062 -15.484375 9.96875 -15.484375 C 8.976562 -15.484375 8.109375 -15.234375 7.359375 -14.734375 C 6.609375 -14.234375 6.03125 -13.582031 5.625 -12.78125 C 5.21875 -11.976562 5.023438 -11.101562 5.046875 -10.15625 Z M 13.984375 -10.125 "/></g></g></g><g fill="#170b30" fill-opacity="1"><g transform="translate(188.061816, 225.483501)"><g><path d="M 10.65625 -7.921875 C 10.65625 -7.566406 10.4375 -7.390625 10 -7.390625 L 2.40625 -7.390625 C 2.226562 -7.390625 2.097656 -7.421875 2.015625 -7.484375 C 1.941406 -7.554688 1.90625 -7.679688 1.90625 -7.859375 L 1.90625 -9.609375 C 1.90625 -9.910156 2.03125 -10.0625 2.28125 -10.0625 L 10.265625 -10.0625 C 10.523438 -10.0625 10.65625 -9.941406 10.65625 -9.703125 Z M 10.65625 -7.921875 "/></g></g></g><g fill="#170b30" fill-opacity="1"><g transform="translate(200.634786, 225.483501)"><g><path d="M 21.15625 -0.6875 C 21.195312 -0.5625 21.21875 -0.472656 21.21875 -0.421875 C 21.21875 -0.316406 21.171875 -0.21875 21.078125 -0.125 C 20.992188 -0.0390625 20.882812 0 20.75 0 L 17.5625 0 C 17.289062 0 17.09375 -0.15625 16.96875 -0.46875 L 12.9375 -10.5 C 12.84375 -10.757812 12.566406 -10.890625 12.109375 -10.890625 L 7.296875 -10.890625 C 7.023438 -10.890625 6.890625 -10.769531 6.890625 -10.53125 L 6.890625 -0.59375 C 6.890625 -0.375 6.835938 -0.21875 6.734375 -0.125 C 6.640625 -0.0390625 6.484375 0 6.265625 0 L 3.46875 0 C 3.269531 0 3.125 -0.0390625 3.03125 -0.125 C 2.945312 -0.21875 2.90625 -0.351562 2.90625 -0.53125 L 2.90625 -23.984375 C 2.90625 -24.160156 2.9375 -24.285156 3 -24.359375 C 3.070312 -24.441406 3.191406 -24.484375 3.359375 -24.484375 L 12.90625 -24.484375 C 15.632812 -24.484375 17.742188 -23.925781 19.234375 -22.8125 C 20.734375 -21.707031 21.484375 -20.109375 21.484375 -18.015625 C 21.484375 -16.328125 21.023438 -14.941406 20.109375 -13.859375 C 19.203125 -12.785156 18.078125 -12.035156 16.734375 -11.609375 C 16.597656 -11.566406 16.550781 -11.4375 16.59375 -11.21875 Z M 12.109375 -13.6875 C 13.867188 -13.6875 15.179688 -14.015625 16.046875 -14.671875 C 16.921875 -15.335938 17.359375 -16.351562 17.359375 -17.71875 C 17.359375 -19.039062 16.957031 -20.03125 16.15625 -20.6875 C 15.351562 -21.351562 14.191406 -21.6875 12.671875 -21.6875 L 7.421875 -21.6875 C 7.222656 -21.6875 7.082031 -21.65625 7 -21.59375 C 6.925781 -21.539062 6.890625 -21.4375 6.890625 -21.28125 L 6.890625 -14.15625 C 6.890625 -13.84375 7.015625 -13.6875 7.265625 -13.6875 Z M 12.109375 -13.6875 "/></g></g></g><g fill="#170b30" fill-opacity="1"><g transform="translate(223.866738, 225.483501)"><g><path d="M 4.984375 -7.53125 C 4.984375 -6.53125 5.21875 -5.628906 5.6875 -4.828125 C 6.164062 -4.023438 6.8125 -3.390625 7.625 -2.921875 C 8.4375 -2.453125 9.328125 -2.21875 10.296875 -2.21875 C 11.304688 -2.21875 12.207031 -2.425781 13 -2.84375 C 13.789062 -3.257812 14.519531 -3.90625 15.1875 -4.78125 C 15.25 -4.875 15.320312 -4.921875 15.40625 -4.921875 C 15.519531 -4.921875 15.609375 -4.894531 15.671875 -4.84375 L 17.359375 -4.0625 C 17.460938 -3.988281 17.515625 -3.898438 17.515625 -3.796875 C 17.515625 -3.734375 17.484375 -3.644531 17.421875 -3.53125 C 16.492188 -2.164062 15.4375 -1.179688 14.25 -0.578125 C 13.0625 0.0234375 11.625 0.328125 9.9375 0.328125 C 8.28125 0.328125 6.800781 -0.0390625 5.5 -0.78125 C 4.207031 -1.53125 3.195312 -2.582031 2.46875 -3.9375 C 1.75 -5.289062 1.390625 -6.828125 1.390625 -8.546875 C 1.390625 -10.390625 1.757812 -12.015625 2.5 -13.421875 C 3.25 -14.835938 4.265625 -15.921875 5.546875 -16.671875 C 6.835938 -17.429688 8.273438 -17.8125 9.859375 -17.8125 C 11.492188 -17.8125 12.925781 -17.453125 14.15625 -16.734375 C 15.382812 -16.023438 16.332031 -14.988281 17 -13.625 C 17.675781 -12.257812 18.015625 -10.644531 18.015625 -8.78125 L 18.015625 -8.640625 C 18.015625 -8.441406 17.988281 -8.289062 17.9375 -8.1875 C 17.882812 -8.09375 17.742188 -8.046875 17.515625 -8.046875 L 5.3125 -8.046875 C 5.09375 -8.046875 4.984375 -7.875 4.984375 -7.53125 Z M 13.984375 -10.125 C 14.210938 -10.125 14.363281 -10.15625 14.4375 -10.21875 C 14.507812 -10.289062 14.546875 -10.414062 14.546875 -10.59375 C 14.546875 -11.445312 14.363281 -12.25 14 -13 C 13.644531 -13.75 13.117188 -14.347656 12.421875 -14.796875 C 11.734375 -15.253906 10.914062 -15.484375 9.96875 -15.484375 C 8.976562 -15.484375 8.109375 -15.234375 7.359375 -14.734375 C 6.609375 -14.234375 6.03125 -13.582031 5.625 -12.78125 C 5.21875 -11.976562 5.023438 -11.101562 5.046875 -10.15625 Z M 13.984375 -10.125 "/></g></g></g><g fill="#170b30" fill-opacity="1"><g transform="translate(243.072692, 225.483501)"><g><path d="M 11.546875 -17.484375 C 11.859375 -17.484375 12.015625 -17.34375 12.015625 -17.0625 L 12.015625 -15.34375 C 12.015625 -15.101562 11.867188 -14.984375 11.578125 -14.984375 L 8.15625 -14.984375 C 7.957031 -14.984375 7.859375 -14.882812 7.859375 -14.6875 L 7.859375 -0.53125 C 7.859375 -0.175781 7.710938 0 7.421875 0 L 4.75 0 C 4.488281 0 4.359375 -0.15625 4.359375 -0.46875 L 4.359375 -14.71875 C 4.359375 -14.894531 4.28125 -14.984375 4.125 -14.984375 L 1.15625 -14.984375 C 0.894531 -14.984375 0.765625 -15.101562 0.765625 -15.34375 L 0.765625 -17.0625 C 0.765625 -17.34375 0.90625 -17.484375 1.1875 -17.484375 L 4.03125 -17.484375 C 4.15625 -17.484375 4.238281 -17.507812 4.28125 -17.5625 C 4.332031 -17.625 4.359375 -17.734375 4.359375 -17.890625 L 4.359375 -20.15625 C 4.359375 -21.539062 4.722656 -22.609375 5.453125 -23.359375 C 6.191406 -24.109375 7.28125 -24.484375 8.71875 -24.484375 L 11.65625 -24.484375 C 11.976562 -24.484375 12.140625 -24.316406 12.140625 -23.984375 L 12.171875 -22.4375 C 12.171875 -22.332031 12.132812 -22.238281 12.0625 -22.15625 C 11.988281 -22.082031 11.882812 -22.046875 11.75 -22.046875 L 9.640625 -22.046875 C 9.023438 -22.046875 8.5625 -21.847656 8.25 -21.453125 C 7.9375 -21.054688 7.78125 -20.503906 7.78125 -19.796875 L 7.78125 -17.78125 C 7.78125 -17.582031 7.894531 -17.484375 8.125 -17.484375 Z M 11.546875 -17.484375 "/></g></g></g><g fill="#170b30" fill-opacity="1"><g transform="translate(255.810664, 225.483501)"><g><path d="M 8.640625 -2.3125 C 10.160156 -2.3125 11.757812 -3.179688 13.4375 -4.921875 L 13.4375 -16.921875 C 13.4375 -17.296875 13.644531 -17.484375 14.0625 -17.484375 L 16.4375 -17.484375 C 16.789062 -17.484375 16.96875 -17.3125 16.96875 -16.96875 L 16.890625 -0.46875 C 16.890625 -0.15625 16.757812 0 16.5 0 L 13.921875 0 C 13.660156 0 13.53125 -0.140625 13.53125 -0.421875 L 13.53125 -2.28125 C 13.53125 -2.539062 13.421875 -2.570312 13.203125 -2.375 C 12.117188 -1.382812 11.113281 -0.6875 10.1875 -0.28125 C 9.269531 0.125 8.304688 0.328125 7.296875 0.328125 C 5.773438 0.328125 4.53125 -0.132812 3.5625 -1.0625 C 2.59375 -2 2.109375 -3.238281 2.109375 -4.78125 L 2.109375 -16.890625 C 2.109375 -17.285156 2.304688 -17.484375 2.703125 -17.484375 L 5.109375 -17.484375 C 5.441406 -17.484375 5.609375 -17.3125 5.609375 -16.96875 L 5.609375 -5.515625 C 5.609375 -4.546875 5.882812 -3.769531 6.4375 -3.1875 C 6.988281 -2.601562 7.722656 -2.3125 8.640625 -2.3125 Z M 8.640625 -2.3125 "/></g></g></g><g fill="#170b30" fill-opacity="1"><g transform="translate(275.049623, 225.483501)"><g><path d="M 2.84375 0 C 2.488281 0 2.3125 -0.175781 2.3125 -0.53125 L 2.3125 -17 C 2.3125 -17.320312 2.453125 -17.484375 2.734375 -17.484375 L 5.28125 -17.484375 C 5.539062 -17.484375 5.671875 -17.34375 5.671875 -17.0625 L 5.671875 -14.984375 C 5.671875 -14.847656 5.707031 -14.769531 5.78125 -14.75 C 5.863281 -14.726562 5.945312 -14.773438 6.03125 -14.890625 C 6.851562 -15.828125 7.695312 -16.546875 8.5625 -17.046875 C 9.425781 -17.554688 10.28125 -17.8125 11.125 -17.8125 C 11.894531 -17.8125 12.28125 -17.660156 12.28125 -17.359375 L 12.28125 -14.78125 C 12.28125 -14.519531 12.15625 -14.410156 11.90625 -14.453125 C 11.488281 -14.566406 10.90625 -14.625 10.15625 -14.625 C 9.539062 -14.625 8.890625 -14.453125 8.203125 -14.109375 C 7.523438 -13.765625 6.957031 -13.316406 6.5 -12.765625 C 6.039062 -12.222656 5.8125 -11.664062 5.8125 -11.09375 L 5.8125 -0.5625 C 5.8125 -0.1875 5.601562 0 5.1875 0 Z M 2.84375 0 "/></g></g></g><g fill="#170b30" fill-opacity="1"><g transform="translate(288.117607, 225.483501)"><g><path d="M 2.90625 0 C 2.6875 0 2.53125 -0.0390625 2.4375 -0.125 C 2.351562 -0.21875 2.3125 -0.375 2.3125 -0.59375 L 2.3125 -23.984375 C 2.3125 -24.316406 2.460938 -24.484375 2.765625 -24.484375 L 5.40625 -24.484375 C 5.675781 -24.484375 5.8125 -24.316406 5.8125 -23.984375 L 5.8125 -16 C 5.8125 -15.757812 5.863281 -15.640625 5.96875 -15.640625 C 6.0625 -15.640625 6.1875 -15.695312 6.34375 -15.8125 C 7.75 -17.144531 9.429688 -17.8125 11.390625 -17.8125 C 13.671875 -17.8125 15.410156 -16.988281 16.609375 -15.34375 C 17.804688 -13.695312 18.40625 -11.53125 18.40625 -8.84375 C 18.40625 -6.007812 17.742188 -3.769531 16.421875 -2.125 C 15.109375 -0.488281 13.265625 0.328125 10.890625 0.328125 C 9.640625 0.328125 8.566406 0.0664062 7.671875 -0.453125 C 6.785156 -0.984375 6.085938 -1.59375 5.578125 -2.28125 C 5.460938 -2.382812 5.382812 -2.4375 5.34375 -2.4375 C 5.300781 -2.4375 5.257812 -2.347656 5.21875 -2.171875 L 4.953125 -0.5625 C 4.910156 -0.363281 4.84375 -0.21875 4.75 -0.125 C 4.664062 -0.0390625 4.515625 0 4.296875 0 Z M 5.8125 -5.9375 C 5.8125 -5.207031 6.015625 -4.539062 6.421875 -3.9375 C 6.828125 -3.332031 7.359375 -2.859375 8.015625 -2.515625 C 8.679688 -2.179688 9.375 -2.015625 10.09375 -2.015625 C 11.53125 -2.015625 12.675781 -2.570312 13.53125 -3.6875 C 14.382812 -4.8125 14.8125 -6.507812 14.8125 -8.78125 C 14.8125 -10.9375 14.421875 -12.578125 13.640625 -13.703125 C 12.859375 -14.835938 11.734375 -15.40625 10.265625 -15.40625 C 9.378906 -15.40625 8.554688 -15.203125 7.796875 -14.796875 C 7.046875 -14.390625 6.382812 -13.859375 5.8125 -13.203125 Z M 5.8125 -5.9375 "/></g></g></g><g fill="#c64fff" fill-opacity="1"><g transform="translate(197.61421, 246.283474)"><g/></g></g><g clip-path="url(#ea22438929)"><g clip-path="url(#9099ab8b92)"><path fill="url(#236e530a5a)" d="M 228.128906 111.394531 L 147.136719 111.394531 L 147.136719 188.640625 L 228.128906 188.640625 Z M 228.128906 111.394531 " fill-rule="nonzero"/></g></g></svg>